Coordinates
version=1
nRows=10
nColumns=40
inDegrees=yes

Units are S.I. units (second, meters, Newtons, ...)
If the header above contains a line with 'inDegrees', this indicates whether rotational values are in degrees (yes) or radians (no).

endheader
time	pelvis_tilt	pelvis_list	pelvis_rotation	pelvis_tx	pelvis_ty	pelvis_tz	hip_flexion_r	hip_adduction_r	hip_rotation_r	knee_angle_r	knee_angle_r_beta	ankle_angle_r	subtalar_angle_r	mtp_angle_r	hip_flexion_l	hip_adduction_l	hip_rotation_l	knee_angle_l	knee_angle_l_beta	ankle_angle_l	subtalar_angle_l	mtp_angle_l	lumbar_extension	lumbar_bending	lumbar_rotation	arm_flex_r	arm_add_r	arm_rot_r	elbow_flex_r	pro_sup_r	wrist_flex_r	wrist_dev_r	arm_flex_l	arm_add_l	arm_rot_l	elbow_flex_l	pro_sup_l	wrist_flex_l	wrist_dev_l
      1.10000000	     19.36779643	      5.39299352	      5.27235189	      1.38872823	      0.97029026	     -0.36150787	      5.94578261	     -7.34286946	     -7.38932197	     29.81232789	      0.52032328	     -7.04249298	      0.00000000	      0.00000000	    -29.37268800	      7.84480691	      6.48771724	      6.65942459	      0.11622889	     -4.22145685	      0.00000000	      0.00000000	    -32.84511142	     -1.98185727	    -10.48440718	      0.93206972	    -13.14907573	      6.26111288	     43.11821268	     76.79007299	      0.00000000	      0.00000000	      7.52186443	    -26.06553988	     24.23517236	     55.68300156	     77.88671826	      0.00000000	      0.00000000
      1.10400000	     19.14211482	      5.44931658	      5.27586935	      1.39312675	      0.96923522	     -0.36165545	      6.54139629	     -7.32708047	     -7.44009918	     28.83353072	      0.50324005	     -7.79412464	      0.00000000	      0.00000000	    -29.45361441	      7.90002745	      6.46964774	      6.64671158	      0.11600700	     -3.99144258	      0.00000000	      0.00000000	    -32.71963008	     -2.05103616	    -10.55525524	      1.09874687	    -13.04167296	      6.02593991	     42.74191079	     76.78363030	      0.00000000	      0.00000000	      7.70557846	    -26.09023590	     24.32734986	     55.75723667	     77.91983004	      0.00000000	      0.00000000
      1.10800000	     18.82878454	      5.54401306	      5.25189548	      1.39784435	      0.96781798	     -0.36198268	      7.27406106	     -7.43345252	     -7.65948901	     28.08767792	      0.49022246	     -7.91729483	      0.00000000	      0.00000000	    -29.46090378	      8.02870995	      6.27047130	      6.65965012	      0.11623282	     -3.80169709	      0.00000000	      0.00000000	    -32.45909533	     -2.16154190	    -10.60391499	      1.20913274	    -13.01933548	      6.08222807	     42.57511014	     76.78384362	      0.00000000	      0.00000000	      7.83989095	    -26.07815039	     24.41306379	     55.86986631	     77.93185147	      0.00000000	      0.00000000
      1.11200000	     18.53064903	      5.67302539	      5.18601039	      1.40263479	      0.96647481	     -0.36213416	      7.97054960	     -7.50734555	     -7.75968318	     27.28200789	      0.47616086	     -8.19331124	      0.00000000	      0.00000000	    -29.47985241	      8.20025068	      6.10720207	      6.68915159	      0.11674772	     -3.56414617	      0.00000000	      0.00000000	    -32.21276310	     -2.33187340	    -10.67924478	      1.23954537	    -12.93057549	      6.03543879	     42.49261645	     76.78280653	      0.00000000	      0.00000000	      7.92953726	    -26.07969688	     24.46783913	     55.97897584	     77.95021595	      0.00000000	      0.00000000
      1.11600000	     18.31022748	      5.60815966	      5.12168769	      1.40692667	      0.96531833	     -0.36215191	      8.50764317	     -7.28100552	     -7.55201443	     26.14273396	      0.45627678	     -9.09075678	      0.00000000	      0.00000000	    -29.54227783	      8.15539791	      6.14396857	      6.71150332	      0.11713783	     -3.27158242	      0.00000000	      0.00000000	    -32.09366871	     -2.29784384	    -10.61636452	      1.40841118	    -12.80140225	      5.80315410	     42.25842368	     76.78295270	      0.00000000	      0.00000000	      8.14988712	    -26.08976665	     24.57662163	     56.04082454	     77.99353834	      0.00000000	      0.00000000
      1.12000000	     18.01249479	      5.72802336	      5.06229875	      1.41170275	      0.96381242	     -0.36234399	      9.23441846	     -7.37220230	     -7.75801279	     25.48083270	      0.44472443	     -9.12424332	      0.00000000	      0.00000000	    -29.55609785	      8.31993128	      5.90878552	      6.75309014	      0.11786366	     -3.05086320	      0.00000000	      0.00000000	    -31.84836842	     -2.45526410	    -10.66410680	      1.47209693	    -12.70800530	      5.80667726	     42.18341103	     76.75751793	      0.00000000	      0.00000000	      8.25986723	    -26.10098488	     24.65039170	     56.15236535	     78.00925381	      0.00000000	      0.00000000
      1.12400000	     17.77136655	      5.75934553	      4.95115415	      1.41612660	      0.96254367	     -0.36240180	      9.75018485	     -7.24013079	     -7.47731143	     24.36570653	      0.42526180	     -9.70117039	      0.00000000	      0.00000000	    -29.58228634	      8.42420801	      5.98178376	      6.83560514	      0.11930382	     -2.78710576	      0.00000000	      0.00000000	    -31.68901348	     -2.53805231	    -10.62359782	      1.66224630	    -12.63809814	      5.77378567	     41.89077647	     76.64924598	      0.00000000	      0.00000000	      8.45327286	    -26.10201647	     24.78126299	     56.19846643	     78.08571735	      0.00000000	      0.00000000
      1.12800000	     17.57251524	      5.77605244	      4.90451701	      1.42086056	      0.96128333	     -0.36242388	     10.24771424	     -7.13525370	     -7.51642904	     23.44895369	      0.40926145	    -10.05878568	      0.00000000	      0.00000000	    -29.59867488	      8.47865938	      5.53095853	      7.02705455	      0.12264524	     -2.52051771	      0.00000000	      0.00000000	    -31.55466836	     -2.58791030	    -10.62258915	      1.78617442	    -12.52208601	      5.67140367	     41.64801458	     76.56923504	      0.00000000	      0.00000000	      8.59632861	    -26.12450386	     24.86640207	     56.27166464	     78.15013886	      0.00000000	      0.00000000
      1.13200000	     17.31210609	      5.86328278	      4.81041348	      1.42560593	      0.95981760	     -0.36244679	     10.85595149	     -7.11189490	     -7.44863979	     22.64608715	      0.39524878	    -10.22029682	      0.00000000	      0.00000000	    -29.61508382	      8.60910927	      5.32169903	      7.12611322	      0.12437414	     -2.20476552	      0.00000000	      0.00000000	    -31.34981110	     -2.73289791	    -10.62767040	      1.87634370	    -12.44662841	      5.58536898	     41.44076531	     76.59164643	      0.00000000	      0.00000000	      8.73024514	    -26.14777739	     24.96281199	     56.33598146	     78.19926688	      0.00000000	      0.00000000
      1.13600000	     17.06562411	      5.85104557	      4.74137974	      1.43023013	      0.95851659	     -0.36217614	     11.34950327	     -6.91292730	     -7.24228321	     21.63101744	      0.37753247	    -10.60490033	      0.00000000	      0.00000000	    -29.62797868	      8.58558991	      5.33830259	      7.24554944	      0.12645869	     -1.92533268	      0.00000000	      0.00000000	    -31.17351526	     -2.78886303	    -10.57036163	      2.02245053	    -12.33433600	      5.55273711	     41.02254333	     76.64066482	      0.00000000	      0.00000000	      8.90549129	    -26.17903478	     25.06372993	     56.35614109	     78.27382719	      0.00000000	      0.00000000
